<mxfile host="65bd71144e">
    <diagram id="9rL2h3Tl3Senq0KF7WHn" name="Page-1">
        <mxGraphModel dx="975" dy="435" grid="1" gridSize="10" guides="1" tooltips="1" connect="1" arrows="1" fold="1" page="1" pageScale="1" pageWidth="850" pageHeight="1100" math="0" shadow="0">
            <root>
                <mxCell id="0"/>
                <mxCell id="1" parent="0"/>
                <mxCell id="4" value="General Tree" style="swimlane;startSize=20;horizontal=0;childLayout=treeLayout;horizontalTree=1;resizable=0;containerType=tree;fontSize=12;direction=east;" vertex="1" parent="1">
                    <mxGeometry x="30" y="60" width="610" height="336" as="geometry"/>
                </mxCell>
                <mxCell id="5" value="Root" style="whiteSpace=wrap;html=1;" vertex="1" parent="4">
                    <mxGeometry x="40" y="148" width="100" height="40" as="geometry"/>
                </mxCell>
                <mxCell id="8" value="public" style="whiteSpace=wrap;html=1;" vertex="1" parent="4">
                    <mxGeometry x="190" y="276" width="80" height="40" as="geometry"/>
                </mxCell>
                <mxCell id="9" value="" style="edgeStyle=elbowEdgeStyle;elbow=vertical;html=1;rounded=1;curved=0;sourcePerimeterSpacing=0;targetPerimeterSpacing=0;startSize=6;endSize=6;" edge="1" parent="4" source="5" target="8">
                    <mxGeometry relative="1" as="geometry"/>
                </mxCell>
                <mxCell id="10" value="" style="edgeStyle=elbowEdgeStyle;elbow=vertical;html=1;rounded=1;curved=0;sourcePerimeterSpacing=0;targetPerimeterSpacing=0;startSize=6;endSize=6;" edge="1" target="11" source="5" parent="4">
                    <mxGeometry relative="1" as="geometry">
                        <mxPoint x="180" y="-848.5" as="sourcePoint"/>
                    </mxGeometry>
                </mxCell>
                <mxCell id="11" value="src" style="whiteSpace=wrap;html=1;" vertex="1" parent="4">
                    <mxGeometry x="190" y="164" width="100" height="40" as="geometry"/>
                </mxCell>
                <mxCell id="18" value="" style="edgeStyle=elbowEdgeStyle;elbow=vertical;html=1;rounded=1;curved=0;sourcePerimeterSpacing=0;targetPerimeterSpacing=0;startSize=6;endSize=6;" edge="1" target="19" source="11" parent="4">
                    <mxGeometry relative="1" as="geometry">
                        <mxPoint x="180" y="-648.5" as="sourcePoint"/>
                    </mxGeometry>
                </mxCell>
                <mxCell id="19" value="components" style="whiteSpace=wrap;html=1;" vertex="1" parent="4">
                    <mxGeometry x="340" y="244" width="100" height="40" as="geometry"/>
                </mxCell>
                <mxCell id="20" value="" style="edgeStyle=elbowEdgeStyle;elbow=vertical;html=1;rounded=1;curved=0;sourcePerimeterSpacing=0;targetPerimeterSpacing=0;startSize=6;endSize=6;" edge="1" target="21" source="11" parent="4">
                    <mxGeometry relative="1" as="geometry">
                        <mxPoint x="180" y="-629" as="sourcePoint"/>
                    </mxGeometry>
                </mxCell>
                <mxCell id="21" value="App.js" style="whiteSpace=wrap;html=1;" vertex="1" parent="4">
                    <mxGeometry x="340" y="164" width="100" height="40" as="geometry"/>
                </mxCell>
                <mxCell id="22" value="" style="edgeStyle=elbowEdgeStyle;elbow=vertical;html=1;rounded=1;curved=0;sourcePerimeterSpacing=0;targetPerimeterSpacing=0;startSize=6;endSize=6;" edge="1" target="23" source="11" parent="4">
                    <mxGeometry relative="1" as="geometry">
                        <mxPoint x="180" y="-475.5" as="sourcePoint"/>
                    </mxGeometry>
                </mxCell>
                <mxCell id="23" value="index.js" style="whiteSpace=wrap;html=1;" vertex="1" parent="4">
                    <mxGeometry x="340" y="84" width="100" height="40" as="geometry"/>
                </mxCell>
                <mxCell id="30" value="" style="edgeStyle=none;html=1;" edge="1" source="5" target="31" parent="4">
                    <mxGeometry relative="1" as="geometry"/>
                </mxCell>
                <mxCell id="31" value="node_modules" style="whiteSpace=wrap;html=1;" vertex="1" parent="4">
                    <mxGeometry x="190" y="20" width="100" height="40" as="geometry"/>
                </mxCell>
                <mxCell id="37" value="" style="edgeStyle=elbowEdgeStyle;elbow=vertical;html=1;rounded=1;curved=0;sourcePerimeterSpacing=0;targetPerimeterSpacing=0;startSize=6;endSize=6;" edge="1" target="38" source="19" parent="4">
                    <mxGeometry relative="1" as="geometry">
                        <mxPoint x="270" y="264" as="sourcePoint"/>
                    </mxGeometry>
                </mxCell>
                <mxCell id="38" value="Chatbot.js" style="whiteSpace=wrap;html=1;" vertex="1" parent="4">
                    <mxGeometry x="490" y="244" width="100" height="40" as="geometry"/>
                </mxCell>
                <mxCell id="42" value="" style="endArrow=classic;html=1;entryX=0.75;entryY=0;entryDx=0;entryDy=0;exitX=0.75;exitY=1;exitDx=0;exitDy=0;" edge="1" parent="4" source="21" target="19">
                    <mxGeometry width="50" height="50" relative="1" as="geometry">
                        <mxPoint x="370" y="230" as="sourcePoint"/>
                        <mxPoint x="420" y="180" as="targetPoint"/>
                    </mxGeometry>
                </mxCell>
                <mxCell id="41" value="" style="endArrow=classic;html=1;exitX=0.75;exitY=1;exitDx=0;exitDy=0;" edge="1" parent="1" source="23">
                    <mxGeometry width="50" height="50" relative="1" as="geometry">
                        <mxPoint x="400" y="290" as="sourcePoint"/>
                        <mxPoint x="450" y="220" as="targetPoint"/>
                    </mxGeometry>
                </mxCell>
            </root>
        </mxGraphModel>
    </diagram>
</mxfile>